HIERARCHY
ROOT joint_0
{
	OFFSET 0.000000 0.000000 0.000000
	CHANNELS 6 Xposition Yposition Zposition Zrotation Yrotation Xrotation 
	JOINT joint_1
	{
		OFFSET 7.683380 1.521202 101.454956
		CHANNELS 3 Zrotation Yrotation Xrotation
		JOINT joint_2
		{
			OFFSET -4.816528 0.859650 92.807007
			CHANNELS 3 Zrotation Yrotation Xrotation
			JOINT joint_3
			{
				OFFSET -7.237778 1.114670 92.543091
				CHANNELS 3 Zrotation Yrotation Xrotation
				JOINT joint_4
				{
					OFFSET 0.479660 2.971886 127.844971
					CHANNELS 3 Zrotation Yrotation Xrotation
					JOINT joint_5
					{
						OFFSET 15.211349 9.937172 76.390015
						CHANNELS 3 Zrotation Yrotation Xrotation
						End Site
						{
							OFFSET 0.000000 0.000000 0.000000
						}
					}
				}
				JOINT joint_6
				{
					OFFSET 2.887054 -26.053230 72.331909
					CHANNELS 3 Zrotation Yrotation Xrotation
					JOINT joint_7
					{
						OFFSET 10.229767 -132.540291 -13.979004
						CHANNELS 3 Zrotation Yrotation Xrotation
						JOINT joint_8
						{
							OFFSET 17.695633 -10.988861 -262.204956
							CHANNELS 3 Zrotation Yrotation Xrotation
							JOINT joint_9
							{
								OFFSET 11.003433 -0.031860 -255.909973
								CHANNELS 3 Zrotation Yrotation Xrotation
								End Site
								{
									OFFSET 0.000000 0.000000 0.000000
								}
							}
						}
					}
				}
				JOINT joint_10
				{
					OFFSET -2.092239 29.348854 71.062988
					CHANNELS 3 Zrotation Yrotation Xrotation
					JOINT joint_11
					{
						OFFSET -11.853149 131.935837 -17.877075
						CHANNELS 3 Zrotation Yrotation Xrotation
						JOINT joint_12
						{
							OFFSET 14.084503 10.700203 -262.437012
							CHANNELS 3 Zrotation Yrotation Xrotation
							JOINT joint_13
							{
								OFFSET 48.202347 13.087273 -251.229919
								CHANNELS 3 Zrotation Yrotation Xrotation
								End Site
								{
									OFFSET 0.000000 0.000000 0.000000
								}
							}
						}
					}
				}
			}
		}
	}
	JOINT joint_14
	{
		OFFSET 4.150818 -83.296913 -102.580017
		CHANNELS 3 Zrotation Yrotation Xrotation
		JOINT joint_15
		{
			OFFSET -36.423187 -7.342392 -449.858948
			CHANNELS 3 Zrotation Yrotation Xrotation
			JOINT joint_16
			{
				OFFSET -41.100235 -7.280350 -426.202026
				CHANNELS 3 Zrotation Yrotation Xrotation
				JOINT joint_17
				{
					OFFSET 175.972961 13.159744 -75.358000
					CHANNELS 3 Zrotation Yrotation Xrotation
					End Site
					{
						OFFSET 0.000000 0.000000 0.000000
					}
				}
			}
		}
	}
	JOINT joint_18
	{
		OFFSET -9.062592 83.477568 -102.093018
		CHANNELS 3 Zrotation Yrotation Xrotation
		JOINT joint_19
		{
			OFFSET -39.145699 -6.092751 -449.645996
			CHANNELS 3 Zrotation Yrotation Xrotation
			JOINT joint_20
			{
				OFFSET -32.926178 -7.016375 -426.911980
				CHANNELS 3 Zrotation Yrotation Xrotation
				JOINT joint_21
				{
					OFFSET 176.289299 16.780729 -73.883997
					CHANNELS 3 Zrotation Yrotation Xrotation
					End Site
					{
						OFFSET 0.000000 0.000000 0.000000
					}
				}
			}
		}
	}
}
MOTION
Frames: 6
Frame Time: 0.016667
127.478752 -111.432213 1076.100952 -1.230770 -0.727712 0.173278 -0.090601 1.926070 2.459347 -0.230477 -0.379450 -0.580019 -0.164932 0.421645 0.375778 -0.427491 -0.217849 2.283237 0.000000 0.000000 0.000000 1.724942 -0.428055 2.111114 -0.215396 -0.668281 -3.653620 -0.005558 -0.002941 -0.129047 0.000000 0.000000 0.000000 -1.563036 -0.283785 -3.498280 -0.198034 0.410464 2.116159 -0.274489 5.464995 -3.192444 0.000000 0.000000 0.000000 -0.583753 -0.670244 0.895066 -0.534041 0.808923 -0.035125 -0.500958 -0.256363 -0.195243 0.000000 0.000000 0.000000 1.257749 -1.517838 0.327089 1.220051 2.700130 0.091785 1.237614 -0.352704 0.551711 0.000000 0.000000 0.000000 
127.670364 -111.353493 1076.077026 -1.244265 -0.707191 0.167320 -0.087775 1.935322 2.454372 -0.227237 -0.381823 -0.578606 -0.161981 0.424573 0.374306 -0.423992 -0.227337 2.271932 0.000000 0.000000 0.000000 1.723992 -0.429940 2.121983 -0.215969 -0.671627 -3.661666 -0.005467 -0.005942 -0.127059 0.000000 0.000000 0.000000 -1.564518 -0.293250 -3.513124 -0.197108 0.402144 2.108927 -0.272057 5.468545 -3.180577 0.000000 0.000000 0.000000 -0.579515 -0.686721 0.892324 -0.530805 0.815742 -0.030460 -0.497326 -0.254811 -0.193806 0.000000 0.000000 0.000000 1.263553 -1.534570 0.331394 1.226029 2.713693 0.089123 1.243487 -0.358204 0.554696 0.000000 0.000000 0.000000 
127.853775 -111.265312 1076.053955 -1.257100 -0.686322 0.161143 -0.083872 1.948136 2.449417 -0.222877 -0.384727 -0.577195 -0.157920 0.428633 0.372953 -0.420525 -0.237458 2.261159 0.000000 0.000000 0.000000 1.721128 -0.432661 2.132780 -0.216914 -0.676173 -3.672518 -0.005276 -0.013440 -0.122955 0.000000 0.000000 0.000000 -1.570337 -0.303821 -3.525782 -0.196328 0.392552 2.095665 -0.269329 5.471324 -3.166793 0.000000 0.000000 0.000000 -0.575574 -0.704522 0.889457 -0.527888 0.823620 -0.026186 -0.494016 -0.253792 -0.192467 0.000000 0.000000 0.000000 1.269215 -1.554528 0.335658 1.231784 2.731355 0.086135 1.249185 -0.362632 0.557505 0.000000 0.000000 0.000000 
128.034363 -111.173653 1076.031982 -1.270250 -0.664755 0.155303 -0.079797 1.960846 2.444059 -0.218357 -0.388857 -0.576661 -0.153604 0.433309 0.372211 -0.417175 -0.247676 2.251034 0.000000 0.000000 0.000000 1.718193 -0.435671 2.144025 -0.217697 -0.680983 -3.682260 -0.005181 -0.020350 -0.121046 0.000000 0.000000 0.000000 -1.576813 -0.313966 -3.538217 -0.195627 0.383557 2.083630 -0.266840 5.474184 -3.154391 0.000000 0.000000 0.000000 -0.571675 -0.723475 0.885822 -0.525146 0.831991 -0.021407 -0.490818 -0.253014 -0.191158 0.000000 0.000000 0.000000 1.275232 -1.576564 0.340154 1.237981 2.751197 0.081681 1.255235 -0.366380 0.560395 0.000000 0.000000 0.000000 
128.217346 -111.083511 1076.010010 -1.282332 -0.641181 0.150606 -0.076631 1.967294 2.436080 -0.214607 -0.390009 -0.574867 -0.150148 0.434706 0.370601 -0.414416 -0.254322 2.241577 0.000000 0.000000 0.000000 1.715395 -0.437883 2.155775 -0.217845 -0.684689 -3.686814 -0.005364 -0.022749 -0.125397 0.000000 0.000000 0.000000 -1.584339 -0.321256 -3.550217 -0.195120 0.378094 2.078241 -0.265372 5.475965 -3.147423 0.000000 0.000000 0.000000 -0.568224 -0.744605 0.881186 -0.522966 0.840894 -0.016741 -0.488151 -0.253503 -0.189981 0.000000 0.000000 0.000000 1.281149 -1.602065 0.344732 1.244180 2.773599 0.075188 1.261183 -0.370277 0.563257 0.000000 0.000000 0.000000 
128.400101 -110.992393 1075.989990 -1.294413 -0.616021 0.146588 -0.074145 1.969831 2.426871 -0.211523 -0.389707 -0.573261 -0.147298 0.436000 0.369343 -0.411347 -0.261097 2.230675 0.000000 0.000000 0.000000 1.714746 -0.440549 2.167759 -0.217574 -0.688466 -3.688485 -0.005753 -0.022404 -0.134415 0.000000 0.000000 0.000000 -1.591071 -0.327532 -3.562835 -0.194872 0.374028 2.077944 -0.264733 5.477954 -3.145191 0.000000 0.000000 0.000000 -0.565033 -0.767988 0.875646 -0.521205 0.850668 -0.011688 -0.485837 -0.253971 -0.188957 0.000000 0.000000 0.000000 1.287326 -1.631044 0.349693 1.250768 2.799273 0.066492 1.267401 -0.373946 0.566210 0.000000 0.000000 0.000000 
